<svg width="20" height="20" viewBox="0 0 20 20" fill="none" xmlns="http://www.w3.org/2000/svg">
<path opacity="0.5" fill-rule="evenodd" clip-rule="evenodd" d="M10 4L7.78998 1.42C7.69995 1.29346 7.5817 1.18962 7.44458 1.11671C7.30746 1.04381 7.15525 1.00386 7 1H2C1.73478 1 1.48044 1.10536 1.29291 1.29289C1.10537 1.48043 1 1.73478 1 2V4H10Z" fill="white"/>
<path fill-rule="evenodd" clip-rule="evenodd" d="M12.24 8.55C12.8733 8.28466 13.5533 8.14865 14.24 8.14999C14.9267 8.14865 15.6067 8.28466 16.24 8.55C16.878 8.81204 17.4588 9.19584 17.95 9.67999C18.4342 10.1712 18.818 10.752 19.08 11.39C19.3454 12.0233 19.4813 12.7033 19.48 13.39C19.4813 14.0767 19.3454 14.7567 19.08 15.39C18.818 16.028 18.4342 16.6088 17.95 17.1C17.4588 17.5841 16.878 17.9679 16.24 18.23C15.6067 18.4953 14.9267 18.6313 14.24 18.63C13.5533 18.6313 12.8733 18.4953 12.24 18.23C11.602 17.9679 11.0212 17.5841 10.53 17.1C10.0459 16.6088 9.66207 16.028 9.40003 15.39C9.1347 14.7567 8.99868 14.0767 9.00001 13.39C8.99868 12.7033 9.1347 12.0233 9.40003 11.39C9.66207 10.752 10.0459 10.1712 10.53 9.67999C11.0212 9.19584 11.602 8.81204 12.24 8.55ZM16.9 11.33C16.9829 11.21 17.0156 11.0624 16.9913 10.9186C16.9671 10.7748 16.8877 10.6461 16.77 10.56C16.711 10.5177 16.6442 10.4875 16.5735 10.4711C16.5028 10.4547 16.4295 10.4525 16.3579 10.4646C16.2863 10.4767 16.2179 10.5028 16.1564 10.5415C16.095 10.5802 16.0418 10.6307 16 10.69L13.32 14.44L11.94 13.07C11.8896 13.0174 11.8291 12.9755 11.762 12.9469C11.695 12.9182 11.6229 12.9035 11.55 12.9035C11.4771 12.9035 11.405 12.9182 11.338 12.9469C11.2709 12.9755 11.2104 13.0174 11.16 13.07C11.0586 13.1745 11.0019 13.3144 11.0019 13.46C11.0019 13.6056 11.0586 13.7455 11.16 13.85L13 15.68L13.46 16.14L13.84 15.61L16.9 11.33Z" fill="white"/>
<path fill-rule="evenodd" clip-rule="evenodd" d="M7.78003 16.08C7.42906 15.2301 7.24894 14.3195 7.25 13.4C7.24894 12.4805 7.42906 11.5699 7.78003 10.72C8.13269 9.87085 8.64915 9.09949 9.29999 8.45C9.94948 7.79916 10.7209 7.28266 11.57 6.92999C12.4199 6.57903 13.3305 6.39893 14.25 6.39999C15.1695 6.39893 16.0801 6.57903 16.93 6.92999C17.3035 7.08262 17.6617 7.27013 18 7.49001V6C18 5.73478 17.8946 5.48043 17.7071 5.29289C17.5196 5.10536 17.2652 5 17 5H1V16C1 16.2652 1.10537 16.5196 1.29291 16.7071C1.48044 16.8946 1.73478 17 2 17H8.25C8.06968 16.706 7.91257 16.3984 7.78003 16.08Z" fill="white"/>
</svg>
